<?xml version="1.0" encoding="UTF-8" standalone="no"?>
<!-- Created with Inkscape (http://www.inkscape.org/) -->

<svg
   xmlns:dc="http://purl.org/dc/elements/1.1/"
   xmlns:cc="http://creativecommons.org/ns#"
   xmlns:rdf="http://www.w3.org/1999/02/22-rdf-syntax-ns#"
   xmlns:svg="http://www.w3.org/2000/svg"
   xmlns="http://www.w3.org/2000/svg"
   xmlns:sodipodi="http://sodipodi.sourceforge.net/DTD/sodipodi-0.dtd"
   xmlns:inkscape="http://www.inkscape.org/namespaces/inkscape"
   width="793.70081"
   height="1122.5197"
   viewBox="0 0 210 297"
   version="1.1"
   id="svg8"
   inkscape:version="0.92.4 (5da689c313, 2019-01-14)"
   sodipodi:docname="icons.svg">
  <defs
     id="defs2" />
  <sodipodi:namedview
     id="base"
     pagecolor="#ffffff"
     bordercolor="#666666"
     borderopacity="1.0"
     inkscape:pageopacity="0.0"
     inkscape:pageshadow="2"
     inkscape:zoom="1.4"
     inkscape:cx="311.92734"
     inkscape:cy="942.09631"
     inkscape:document-units="px"
     inkscape:current-layer="svg8"
     showgrid="false"
     inkscape:window-width="1366"
     inkscape:window-height="705"
     inkscape:window-x="-8"
     inkscape:window-y="-8"
     inkscape:window-maximized="1"
     units="px" />
  <metadata
     id="metadata5">
    <rdf:RDF>
      <cc:Work
         rdf:about="">
        <dc:format>image/svg+xml</dc:format>
        <dc:type
           rdf:resource="http://purl.org/dc/dcmitype/StillImage" />
        <dc:title></dc:title>
      </cc:Work>
    </rdf:RDF>
  </metadata>
  <g
     inkscape:label="Layer 1"
     inkscape:groupmode="layer"
     id="layer1" />
  <g
     id="g6274"
     transform="matrix(0.26458333,0,0,0.26458333,-52.047585,-51.853232)">
    <g
       id="g6217">
	<g
   id="g6215">
		<path
   id="move"
   d="m 255.51541,227.59632 -7.99998,-7.0022 c -0.29494,-0.25687 -0.71288,-0.31846 -1.07232,-0.15731 -0.35747,0.16219 -0.58593,0.51778 -0.58593,0.91041 v 3.00975 h -9.99996 v -10.01186 h 3.00001 c 0.39262,0 0.74803,-0.22959 0.91012,-0.58706 0.1621,-0.35747 0.10154,-0.77662 -0.15825,-1.07166 l -7.00004,-8.00251 c -0.37894,-0.43565 -1.125,-0.43565 -1.50394,0 l -7.00004,8.00251 c -0.25978,0.29504 -0.32034,0.7141 -0.15825,1.07166 0.16209,0.35756 0.5176,0.58706 0.91013,0.58706 h 3 v 10.01205 h -9.99976 v -3.00975 c 0,-0.39272 -0.22857,-0.74832 -0.58594,-0.91041 -0.35747,-0.16313 -0.77738,-0.0997 -1.07232,0.15731 l -7.99998,7.0022 c -0.21684,0.19031 -0.34181,0.46481 -0.34181,0.753 0,0.28819 0.12497,0.56269 0.34181,0.75319 l 7.99998,7.0022 c 0.29691,0.25884 0.71682,0.32137 1.07232,0.15731 0.35747,-0.16219 0.58594,-0.51778 0.58594,-0.91041 v -3.00094 h 10.00004 V 242.354 h -3 c -0.39263,0 -0.74803,0.22959 -0.91013,0.58706 -0.16209,0.35757 -0.10153,0.77663 0.15825,1.07166 l 7.00004,8.00251 c 0.18929,0.21788 0.46275,0.34191 0.75179,0.34191 0.28903,0 0.5625,-0.12403 0.75197,-0.34191 l 7.00004,-8.00251 c 0.25978,-0.29503 0.32034,-0.71409 0.15825,-1.07166 -0.1621,-0.35756 -0.5176,-0.58706 -0.91013,-0.58706 h -3 v -10.00314 h 10.00004 v 3.00094 c 0,0.39272 0.22857,0.74832 0.58594,0.91041 0.35747,0.16313 0.77738,0.0997 1.07232,-0.15731 l 7.99998,-7.0022 c 0.21675,-0.1905 0.34181,-0.465 0.34181,-0.75319 -1.9e-4,-0.28819 -0.12516,-0.56269 -0.342,-0.75319 z"
   inkscape:connector-curvature="0"
   style="stroke-width:0.09375014" />

	</g>

</g>
    <g
       id="g6219">
</g>
    <g
       id="g6221">
</g>
    <g
       id="g6223">
</g>
    <g
       id="g6225">
</g>
    <g
       id="g6227">
</g>
    <g
       id="g6229">
</g>
    <g
       id="g6231">
</g>
    <g
       id="g6233">
</g>
    <g
       id="g6235">
</g>
    <g
       id="g6237">
</g>
    <g
       id="g6239">
</g>
    <g
       id="g6241">
</g>
    <g
       id="g6243">
</g>
    <g
       id="g6245">
</g>
    <g
       id="g6247">
</g>
  </g>
  <g
     id="g6336"
     transform="matrix(0.26458333,0,0,0.26458333,96.260009,52.224084)">
    <g
       id="g6279">
	<g
   id="hash">
		<path
   id="rails"
   d="m -235.54994,-171.48106 v -6 h -7.506 l 1.5,-12 h -6.00001 l -1.5,12 h -11.997 l 1.5,-12 h -6 l -1.5,12 h -10.497 v 6 h 9.747 l -1.497,12 h -8.25 v 6 h 7.5 l -1.5,12 h 6 l 1.5,-12 h 12 l -1.503,12 h 6.003 l 1.5,-12 h 10.50001 v -6 h -9.75001 l 1.49401,-12 z m -15.75001,12 h -12 l 1.497,-12 h 11.997 z"
   inkscape:connector-curvature="0"
   style="stroke-width:1.5" />

	</g>

</g>
    <g
       id="g6281">
</g>
    <g
       id="g6283">
</g>
    <g
       id="g6285">
</g>
    <g
       id="g6287">
</g>
    <g
       id="g6289">
</g>
    <g
       id="g6291">
</g>
    <g
       id="g6293">
</g>
    <g
       id="g6295">
</g>
    <g
       id="g6297">
</g>
    <g
       id="g6299">
</g>
    <g
       id="g6301">
</g>
    <g
       id="g6303">
</g>
    <g
       id="g6305">
</g>
    <g
       id="g6307">
</g>
    <g
       id="g6309">
</g>
  </g>
  <g
     id="g6399"
     transform="matrix(0.26458333,0,0,0.26458333,34.056475,-0.80702654)">
    <g
       id="g6342">
	<g
   id="g6340">
		<path
   id="line"
   d="m 51.217519,11.395378 -25.80602,41.805388 c -0.89914,1.45591 -0.447028,3.36351 1.008462,4.26138 0.506773,0.31271 1.068206,0.46271 1.623707,0.46271 1.038546,0 2.053364,-0.5216 2.638525,-1.47117 l 25.80602,-41.805808 c 0.898717,-1.455489 0.447028,-3.363091 -1.008886,-4.260961 -1.455065,-0.8982928 -3.364362,-0.4470278 -4.261808,1.008461 z"
   inkscape:connector-curvature="0"
   style="stroke-width:0.42372328" />

	</g>

</g>
    <g
       id="g6344">
</g>
    <g
       id="g6346">
</g>
    <g
       id="g6348">
</g>
    <g
       id="g6350">
</g>
    <g
       id="g6352">
</g>
    <g
       id="g6354">
</g>
    <g
       id="g6356">
</g>
    <g
       id="g6358">
</g>
    <g
       id="g6360">
</g>
    <g
       id="g6362">
</g>
    <g
       id="g6364">
</g>
    <g
       id="g6366">
</g>
    <g
       id="g6368">
</g>
    <g
       id="g6370">
</g>
    <g
       id="g6372">
</g>
  </g>
  <g
     id="g6459"
     transform="matrix(0.26458333,0,0,0.26458333,2.4771227,-44.468053)">
    <g
       id="g6403">
	<path
   id="circular-arc"
   d="m 238.73119,184.29393 c -2.14621,-3.67683 -5.0574,-6.58802 -8.73434,-8.73412 -3.6776,-2.14599 -7.69221,-3.21876 -12.0469,-3.21876 -4.35425,0 -8.37007,1.07277 -12.04701,3.21876 -3.67716,2.14577 -6.58835,5.05696 -8.73456,8.73412 -2.14631,3.67738 -3.21909,7.69319 -3.21909,12.04712 0,4.35414 1.0731,8.3693 3.21876,12.0469 2.1461,3.67683 5.05729,6.58802 8.73445,8.73434 3.67738,2.14588 7.69287,3.21876 12.04701,3.21876 4.35414,0 8.37007,-1.07288 12.04723,-3.21876 3.67694,-2.14555 6.58802,-5.05751 8.73401,-8.73434 2.14566,-3.67727 3.21832,-7.69298 3.21832,-12.0469 1.1e-4,-4.35436 -1.07266,-8.37029 -3.21788,-12.04712 z m -6.06286,20.5782 c -1.52077,2.60406 -3.58314,4.66642 -6.18719,6.18796 -2.60406,1.52078 -5.44772,2.2804 -8.53152,2.2804 -3.08304,0 -5.92691,-0.75962 -8.5313,-2.2804 -2.60406,-1.52154 -4.66642,-3.5839 -6.18719,-6.18796 -1.52111,-2.60406 -2.28139,-5.44783 -2.28139,-8.53108 0,-3.08347 0.76061,-5.92724 2.28139,-8.5313 1.52044,-2.60406 3.58335,-4.66686 6.18719,-6.18752 2.60406,-1.52089 5.44783,-2.28106 8.5313,-2.28106 3.08369,0 5.92746,0.76017 8.53152,2.28106 2.60405,1.52077 4.66653,3.58346 6.18719,6.18752 1.52089,2.60406 2.28084,5.44783 2.28084,8.5313 0,3.08325 -0.75995,5.92702 -2.28084,8.53108 z"
   inkscape:connector-curvature="0"
   style="stroke-width:0.1094556" />

</g>
    <g
       id="g6405">
</g>
    <g
       id="g6407">
</g>
    <g
       id="g6409">
</g>
    <g
       id="g6411">
</g>
    <g
       id="g6413">
</g>
    <g
       id="g6415">
</g>
    <g
       id="g6417">
</g>
    <g
       id="g6419">
</g>
    <g
       id="g6421">
</g>
    <g
       id="g6423">
</g>
    <g
       id="g6425">
</g>
    <g
       id="g6427">
</g>
    <g
       id="g6429">
</g>
    <g
       id="g6431">
</g>
    <g
       id="g6433">
</g>
  </g>
  <g
     id="g6639"
     transform="matrix(0.26458333,0,0,0.26458333,3.4940956,-43.882964)">
    <g
       id="g6465">
	<g
   id="g6463">
		<path
   id="ruler"
   d="m 303.07349,180.8929 -9.60041,-9.60051 c -0.31285,-0.31284 -0.81844,-0.31284 -1.13128,0 l -36.7993,36.7993 c -0.31284,0.31285 -0.31284,0.81844 0,1.13128 l 9.60041,9.60042 c 0.14963,0.15037 0.35363,0.23437 0.5656,0.23437 0.21196,0 0.41521,-0.084 0.56559,-0.23437 l 36.7992,-36.79921 c 0.15038,-0.14963 0.23438,-0.35363 0.23438,-0.56559 1.9e-4,-0.21206 -0.0838,-0.41531 -0.23419,-0.56569 z m -37.36489,36.23362 -8.46914,-8.46914 35.66793,-35.66803 8.46914,8.46914 z"
   inkscape:connector-curvature="0"
   style="stroke-width:0.0937495" />

	</g>

</g>
  </g>
  <g
     id="bla"
     transform="matrix(0.35277779,0,0,0.35277779,89.983529,-101.65051)">
    <path
       id="protractor"
       d="m 53.18499,316.37375 c -0.391872,-6.10293 -2.955959,-11.78658 -7.31966,-16.14985 -4.75386,-4.75429 -11.074782,-7.37234 -17.797853,-7.37234 -6.723072,0 -13.043994,2.61805 -17.797854,7.37234 -4.363701,4.36327 -6.9277877,10.04692 -7.31966,16.14985 H 0 v 12.47781 h 56.134953 v -12.47781 z m -0.346047,9.1818 h -3.346974 v -2.60434 h -3.29601 v 2.60434 h -3.296438 v -2.60434 H 39.60394 v 2.60434 h -3.296439 v -2.60434 h -3.29601 v 2.60434 h -3.29601 v -2.60434 h -3.296009 v 2.60434 h -3.296439 v -2.60434 h -3.295581 v 2.60434 h -3.296439 v -2.60434 h -3.296009 v 2.60434 H 9.9389943 v -2.60434 H 6.6429845 v 2.60434 H 3.2960098 v -5.88579 h 2.8972851 v -1.64801 c 0,-12.06153 9.8126531,-21.87418 21.8741821,-21.87418 12.061528,0 21.874181,9.81265 21.874181,21.87418 v 1.64801 h 2.897285 z m 0,0"
       inkscape:connector-curvature="0"
       style="stroke-width:0.10963858" />
  </g>
</svg>
