<?xml version="1.0" encoding="iso-8859-1"?>
<!-- Generator: Adobe Illustrator 19.0.0, SVG Export Plug-In . SVG Version: 6.00 Build 0)  -->
<svg version="1.1" id="Capa_1" xmlns="http://www.w3.org/2000/svg" xmlns:xlink="http://www.w3.org/1999/xlink" x="0px" y="0px"
	 viewBox="0 0 512 512" style="enable-background:new 0 0 512 512;" xml:space="preserve">
<g>
	<g>
		<path d="M508.354,247.885l-85.333-74.69c-3.146-2.74-7.604-3.397-11.438-1.678c-3.813,1.73-6.25,5.523-6.25,9.711v32.104H298.667
			V106.539h32c4.188,0,7.979-2.449,9.708-6.262s1.083-8.284-1.688-11.431l-74.667-85.36c-4.042-4.647-12-4.647-16.042,0
			l-74.667,85.36c-2.771,3.147-3.417,7.617-1.688,11.431s5.521,6.262,9.708,6.262h32v106.795H106.667v-32.104
			c0-4.189-2.438-7.982-6.25-9.711c-3.813-1.74-8.292-1.063-11.438,1.678l-85.333,74.69C1.333,249.917,0,252.845,0,255.919
			c0,3.074,1.333,6.002,3.646,8.034l85.333,74.69c3.167,2.761,7.646,3.428,11.438,1.678c3.813-1.73,6.25-5.523,6.25-9.711v-32.01
			h106.667v106.7h-32c-4.188,0-7.979,2.449-9.708,6.262c-1.729,3.814-1.083,8.284,1.688,11.431l74.667,85.36
			C250,510.677,252.917,512,256,512s6-1.323,8.021-3.647l74.667-85.36c2.771-3.147,3.417-7.617,1.688-11.431
			c-1.729-3.814-5.521-6.262-9.708-6.262h-32v-106.7h106.667v32.01c0,4.189,2.438,7.982,6.25,9.711
			c3.813,1.74,8.292,1.063,11.438-1.678l85.333-74.69c2.312-2.032,3.646-4.96,3.646-8.034
			C512,252.845,510.667,249.917,508.354,247.885z"/>
	</g>
</g>
<g>
</g>
<g>
</g>
<g>
</g>
<g>
</g>
<g>
</g>
<g>
</g>
<g>
</g>
<g>
</g>
<g>
</g>
<g>
</g>
<g>
</g>
<g>
</g>
<g>
</g>
<g>
</g>
<g>
</g>
</svg>
